<svg width="32" height="30" viewBox="0 0 32 30" fill="none" xmlns="http://www.w3.org/2000/svg">
    <path
        d="M15.7837 29.193C8.03259 29.193 1.6924 22.9575 1.39289 15.1739C0.519628 14.4882 0 13.4418 0 12.2979C0 10.6524 1.06091 9.26308 2.56566 8.8048C4.82821 3.51108 10.0606 0 15.7873 0C18.1834 0 20.5037 0.591791 22.5858 1.72848C22.8564 1.38206 23.275 1.16194 23.7477 1.16194C24.0003 1.16194 24.2385 1.22689 24.4442 1.33875C24.5705 1.30266 24.704 1.28464 24.8375 1.28464C25.2344 1.28464 25.6061 1.43979 25.8876 1.72487C26.1654 2.00994 26.3134 2.37801 26.3134 2.76412C26.3134 2.88681 26.299 3.00591 26.2701 3.11777C26.4 3.33789 26.4758 3.59408 26.4758 3.86833C26.4758 4.14258 26.4072 4.38436 26.2845 4.59726C27.6125 6.02985 28.6445 7.71503 29.3121 9.5626C30.6075 10.14 31.4664 11.4318 31.4664 12.9077C31.4664 14.0047 30.972 15.0295 30.1456 15.7187C29.5791 23.3183 23.3797 29.1858 15.7873 29.1858L15.7837 29.193Z"
        fill="white" />
    <path
        d="M15.7837 28.179C23.0918 28.179 29.0162 22.1674 29.0162 14.7517C29.0162 7.33597 23.0918 1.32434 15.7837 1.32434C8.47565 1.32434 2.55127 7.33597 2.55127 14.7517C2.55127 22.1674 8.47565 28.179 15.7837 28.179Z"
        fill="#41BFDD" />
    <path
        d="M5.0736 6.98617C5.30815 6.997 5.54632 7.00421 5.78087 7.00421C10.0462 7.00421 14.0913 4.90766 16.6028 1.40017C16.6425 1.34244 16.6317 1.26305 16.574 1.21975C16.5162 1.17645 16.4369 1.19086 16.3972 1.2486C13.9361 4.69114 9.96676 6.7444 5.78087 6.7444C5.54992 6.7444 5.31537 6.73719 5.08803 6.72637C5.01947 6.72637 4.95812 6.77687 4.95452 6.84904C4.95091 6.92121 5.00504 6.97895 5.0736 6.98256V6.98617Z"
        fill="#192239" />
    <path
        d="M5.78085 7.18459C5.54268 7.18459 5.30091 7.17738 5.06275 7.16655C4.89315 7.15572 4.76324 7.01137 4.77407 6.84177C4.78128 6.67217 4.92563 6.54588 5.09523 6.54948C5.32256 6.56031 5.55351 6.56754 5.78085 6.56754C9.909 6.56754 13.8243 4.53954 16.2528 1.14392C16.2997 1.07535 16.3719 1.03206 16.4513 1.02124C16.5343 1.0068 16.6136 1.02844 16.6786 1.07535C16.7436 1.12226 16.7869 1.19443 16.8013 1.27743C16.8157 1.36043 16.7941 1.43982 16.7472 1.50838C14.2032 5.06278 10.1039 7.1882 5.78085 7.1882V7.18459Z"
        fill="#192239" />
    <path
        d="M27.1832 7.93516C26.4687 8.18054 25.7289 8.30685 24.9856 8.30685C23.4592 8.30685 21.9508 7.76555 20.6084 6.75156C21.7884 6.06233 22.8674 5.18908 23.802 4.15343H25C25.0686 4.15343 25.1263 4.09568 25.1263 4.02351C25.1263 3.95134 25.0686 3.89361 25 3.89361H24.0546L24.9278 3.00593C24.9784 2.95541 24.9784 2.87602 24.9278 2.8255C24.8773 2.77498 24.7979 2.77498 24.7474 2.8255L23.8742 3.71318V2.79301C23.8742 2.72084 23.8164 2.66311 23.7479 2.66311C23.6793 2.66311 23.6216 2.72084 23.6216 2.79301V3.9694C21.1425 6.7227 17.617 8.30324 13.9435 8.30324C13.1352 8.30324 12.3305 8.22746 11.5438 8.07951C15.1848 7.49493 18.4541 5.4128 20.5507 2.24812C20.5904 2.19038 20.576 2.111 20.5146 2.07131C20.4569 2.03161 20.3775 2.04604 20.3378 2.10738C17.8948 5.7953 13.8244 7.9965 9.45087 7.9965C7.86312 7.9965 6.31145 7.71144 4.83917 7.14851C4.77422 7.12325 4.70205 7.15573 4.67679 7.2243C4.65153 7.28925 4.68401 7.36501 4.74896 7.39027C6.25011 7.96403 7.83064 8.25272 9.45087 8.25272C9.89833 8.25272 10.3386 8.22384 10.7788 8.18054C11.8072 8.43314 12.8718 8.56305 13.9399 8.56305C16.206 8.56305 18.4108 7.97126 20.3631 6.88509C21.7704 7.98209 23.3654 8.56305 24.9856 8.56305C25.7578 8.56305 26.5228 8.43314 27.2662 8.17693C27.3311 8.15528 27.3672 8.0795 27.3456 8.01454C27.3239 7.94598 27.2517 7.90991 27.1832 7.93516Z"
        fill="#192239" />
    <path
        d="M24.9819 8.74714C23.3617 8.74714 21.7631 8.1806 20.345 7.10526C17.4184 8.70023 13.9398 9.14047 10.7643 8.36825C10.2844 8.41516 9.85496 8.44042 9.4472 8.44042C7.80532 8.44042 6.20313 8.14451 4.68394 7.56714C4.60816 7.53827 4.54682 7.48056 4.51434 7.40478C4.48186 7.329 4.47826 7.24599 4.50712 7.1666C4.56847 7.00783 4.74168 6.92483 4.90045 6.98618C6.35469 7.54189 7.88471 7.81974 9.45081 7.81974C13.7666 7.81974 17.7793 5.64742 20.1898 2.01002C20.2367 1.94146 20.3053 1.89453 20.3847 1.8801C20.464 1.86566 20.547 1.8801 20.6156 1.92701C20.6842 1.97392 20.7311 2.0425 20.7455 2.1255C20.7599 2.20849 20.7455 2.29148 20.6986 2.36004C18.8005 5.22521 15.892 7.26402 12.6047 8.06151C16.6606 8.49092 20.6986 6.92484 23.4447 3.90811V2.80029C23.4447 2.63069 23.5818 2.48994 23.7514 2.48994C23.921 2.48994 24.0581 2.63069 24.0581 2.80029V3.28021L24.6247 2.70285C24.7438 2.58016 24.9386 2.58016 25.0577 2.70285C25.1154 2.76059 25.1479 2.83997 25.1479 2.92297C25.1479 3.00596 25.1154 3.08535 25.0577 3.14308L24.4912 3.72046H25.0036C25.1732 3.72046 25.3103 3.86119 25.3103 4.03079C25.3103 4.20039 25.1732 4.34112 25.0036 4.34112H23.8849C23.0189 5.29016 22.0301 6.10571 20.9404 6.77328C22.8493 8.12648 25.0866 8.47288 27.1326 7.76922C27.2084 7.74396 27.2914 7.74758 27.3672 7.78367C27.4393 7.81975 27.4971 7.88471 27.5223 7.96409C27.5764 8.12648 27.4898 8.30328 27.3311 8.35741C26.5697 8.62083 25.783 8.75075 24.9927 8.75075L24.9819 8.74714Z"
        fill="#192239" />
    <path
        d="M24.6463 14.6219C24.5777 14.6219 24.52 14.6796 24.52 14.7518C24.52 19.6377 20.6012 23.6143 15.7838 23.6143C10.9664 23.6143 7.04752 19.6377 7.04752 14.7518C7.04752 14.6796 6.98978 14.6219 6.92122 14.6219C6.85266 14.6219 6.79492 14.6796 6.79492 14.7518C6.79492 19.782 10.8256 23.8705 15.7838 23.8705C20.7419 23.8705 24.7726 19.7784 24.7726 14.7518C24.7726 14.6796 24.7149 14.6219 24.6463 14.6219Z"
        fill="#192239" />
    <path
        d="M15.7838 24.0545C10.7282 24.0545 6.6145 19.883 6.6145 14.7517C6.6145 14.5821 6.75163 14.4414 6.92123 14.4414C7.09083 14.4414 7.22795 14.5821 7.22795 14.7517C7.22795 19.5402 11.0674 23.4338 15.7838 23.4338C20.5001 23.4338 24.3396 19.5402 24.3396 14.7517C24.3396 14.5821 24.4767 14.4414 24.6463 14.4414C24.8159 14.4414 24.953 14.5821 24.953 14.7517C24.953 19.8794 20.8393 24.0545 15.7838 24.0545Z"
        fill="#192239" />
    <path
        d="M13.7233 15.2497V11.2622C13.7233 11.1901 13.6656 11.1323 13.597 11.1323C13.5284 11.1323 13.4707 11.1901 13.4707 11.2622V15.2497C13.4707 15.3218 13.5284 15.3796 13.597 15.3796C13.6656 15.3796 13.7233 15.3218 13.7233 15.2497Z"
        fill="#192239" />
    <path
        d="M13.597 15.56C13.4274 15.56 13.2903 15.4193 13.2903 15.2497V11.2622C13.2903 11.0926 13.4274 10.9519 13.597 10.9519C13.7666 10.9519 13.9037 11.0926 13.9037 11.2622V15.2497C13.9037 15.4193 13.7666 15.56 13.597 15.56Z"
        fill="#192239" />
    <path
        d="M18.0968 15.2497V11.2622C18.0968 11.1901 18.0391 11.1323 17.9705 11.1323C17.902 11.1323 17.8442 11.1901 17.8442 11.2622V15.2497C17.8442 15.3218 17.902 15.3796 17.9705 15.3796C18.0391 15.3796 18.0968 15.3218 18.0968 15.2497Z"
        fill="#192239" />
    <path
        d="M17.9705 15.56C17.8009 15.56 17.6638 15.4193 17.6638 15.2497V11.2622C17.6638 11.0926 17.8009 10.9519 17.9705 10.9519C18.1401 10.9519 18.2773 11.0926 18.2773 11.2622V15.2497C18.2773 15.4193 18.1401 15.56 17.9705 15.56Z"
        fill="#192239" />
    <path
        d="M3.62654 10.3962C3.6951 10.3962 3.75284 10.3384 3.75284 10.2663C3.75284 10.1941 3.6951 10.1363 3.62654 10.1363C2.37077 10.1363 1.34595 11.172 1.34595 12.4494C1.34595 13.7268 2.36716 14.7625 3.62654 14.7625C3.6951 14.7625 3.75284 14.7047 3.75284 14.6326C3.75284 14.5604 3.6951 14.5027 3.62654 14.5027C2.50789 14.5027 1.60215 13.5789 1.60215 12.4458C1.60215 11.3127 2.5115 10.3889 3.62654 10.3889V10.3962Z"
        fill="#192239" />
    <path
        d="M3.6266 14.9465C2.26979 14.9465 1.16919 13.8279 1.16919 12.4531C1.16919 11.0782 2.2734 9.95955 3.6266 9.95955C3.7962 9.95955 3.93332 10.1003 3.93332 10.2699C3.93332 10.4395 3.7962 10.5802 3.6266 10.5802C2.60899 10.5802 1.77903 11.421 1.77903 12.4531C1.77903 13.4851 2.60899 14.3259 3.6266 14.3259C3.7962 14.3259 3.93332 14.4666 3.93332 14.6362C3.93332 14.8058 3.7962 14.9465 3.6266 14.9465Z"
        fill="#192239" />
    <path
        d="M27.8326 10.7535C27.764 10.7535 27.7063 10.8113 27.7063 10.8834C27.7063 10.9556 27.764 11.0134 27.8326 11.0134C28.9512 11.0134 29.857 11.9371 29.857 13.0702C29.857 14.2033 28.9476 15.1271 27.8326 15.1271C27.764 15.1271 27.7063 15.1848 27.7063 15.257C27.7063 15.3291 27.764 15.3869 27.8326 15.3869C29.0884 15.3869 30.1132 14.3476 30.1132 13.0738C30.1132 11.8 29.092 10.7607 27.8326 10.7607V10.7535Z"
        fill="#192239" />
    <path
        d="M27.8326 15.56C27.663 15.56 27.5259 15.4193 27.5259 15.2497C27.5259 15.0801 27.663 14.9394 27.8326 14.9394C28.8502 14.9394 29.6802 14.0986 29.6802 13.0665C29.6802 12.0345 28.8502 11.1937 27.8326 11.1937C27.663 11.1937 27.5259 11.053 27.5259 10.8834C27.5259 10.7138 27.663 10.573 27.8326 10.573C29.1894 10.573 30.29 11.6917 30.29 13.0665C30.29 14.4414 29.1858 15.56 27.8326 15.56Z"
        fill="#192239" />
</svg>